<?xml version="1.0" encoding="UTF-8" standalone="no" ?>
<!DOCTYPE svg PUBLIC "-//W3C//DTD SVG 1.1//EN" "http://www.w3.org/Graphics/SVG/1.1/DTD/svg11.dtd">
<svg xmlns="http://www.w3.org/2000/svg" xmlns:xlink="http://www.w3.org/1999/xlink" version="1.1" width="410" height="410" viewBox="0 0 410 410" xml:space="preserve">
<desc>Created with Fabric.js 3.6.6</desc>
<defs>
</defs>
<g transform="matrix(1 0 0 1 199 198.5)"  >
<g style=""   >
		<g transform="matrix(1 0 0 1 2.55 4.16)"  >
<path style="stroke: none; stroke-width: 1; stroke-dasharray: none; stroke-linecap: butt; stroke-dashoffset: 0; stroke-linejoin: miter; stroke-miterlimit: 4; fill: rgb(172,21,17); fill-rule: nonzero; opacity: 1;"  transform=" translate(191.08, -145.74)" d="M 0 0 C 2.18074492 2.09273674 2.18074492 2.09273674 4.37109375 3.08203125 C 4.53340606 13.60100829 4.11064777 23.97686146 3.18359375 34.45703125 C 3.08614365 35.57804733 3.08614365 35.57804733 2.98672485 36.72171021 C -5.9249528 137.75401088 -43.36666411 236.70845086 -120.80078125 304.9453125 C -123.36085172 307.06706787 -125.96944107 309.08648391 -128.62890625 311.08203125 C -129.82382603 312.01576452 -131.01776066 312.95075928 -132.2109375 313.88671875 C -146.64738608 325.09424623 -162.0706449 334.36450463 -178.62890625 342.08203125 C -179.62148438 342.54867188 -180.6140625 343.0153125 -181.63671875 343.49609375 C -187.96068776 346.2710891 -191.46124227 346.25378026 -198.08203125 343.8046875 C -199.35214938 343.26169395 -200.61758733 342.70766236 -201.87890625 342.14453125 C -202.91446655 341.68373169 -202.91446655 341.68373169 -203.97094727 341.21362305 C -226.46531762 330.97652816 -246.08929451 316.80153976 -264.3046875 300.1875 C -266.3416455 298.3422557 -268.41161472 296.55121455 -270.50390625 294.76953125 C -278.86968712 287.45158556 -286.52261519 279.54498695 -293.4296875 270.83984375 C -295.70427042 267.98752485 -298.06760618 265.22709366 -300.44140625 262.45703125 C -311.1535134 249.5892369 -320.23630435 235.54618806 -328.62890625 221.08203125 C -329.10827637 220.25638672 -329.58764648 219.43074219 -330.08154297 218.58007812 C -363.38865276 160.64130093 -379.21564071 94.8358095 -384.31054688 28.65332031 C -384.60549536 25.34464977 -385.01994698 22.08084489 -385.48828125 18.79296875 C -387.04227857 6.58717848 -387.04227857 6.58717848 -384.62890625 2.30957031 C -381.79386103 -1.135094 -378.32881353 -3.46845226 -374.53466797 -5.75585938 C -372.68461769 -6.88399662 -370.94567998 -8.09498362 -369.1953125 -9.37109375 C -288.62704318 -67.25000872 -169.24956827 -73.96643487 0 0 Z" stroke-linecap="round" />
</g>
		<g transform="matrix(1 0 0 1 3.03 -40.21)"  >
<path style="stroke: none; stroke-width: 1; stroke-dasharray: none; stroke-linecap: butt; stroke-dashoffset: 0; stroke-linejoin: miter; stroke-miterlimit: 4; fill: rgb(36,32,33); fill-rule: nonzero; opacity: 1;"  transform=" translate(70.97, -131.29)" d="M 0 0 C 0.71865234 0.13986328 1.43730469 0.27972656 2.17773438 0.42382812 C 34.97076988 6.87032228 68.72787697 20.52620617 96 40 C 96.70261963 40.41354736 97.40523926 40.82709473 98.12915039 41.25317383 C 100 43 100 43 100.44775391 45.56762695 C 100.17156207 54.49198789 99.42320903 63.32447199 98.375 72.1875 C 98.28796814 72.93723083 98.20093628 73.68696167 98.11126709 74.45941162 C 92.20798146 124.85664224 79.13011356 171.87275158 58 218 C 57.67 218 57.34 218 57 218 C 56.814375 217.195625 56.62875 216.39125 56.4375 215.5625 C 54.8339938 211.58859334 52.73792665 208.83498356 50.046875 205.5390625 C 49.03367187 204.28222656 49.03367187 204.28222656 48 203 C 47.55148682 202.45859375 47.10297363 201.9171875 46.64086914 201.359375 C 42.07276342 195.61141753 39.03383392 189.38053809 35.9375 182.75 C 35.10484619 180.99490112 35.10484619 180.99490112 34.25537109 179.2043457 C 29.59843625 169.37712672 25.03812745 159.50331974 20.48339844 149.62841797 C 17.1574131 142.43101857 13.73293625 135.30738833 10.07421875 128.2734375 C 9 126 9 126 9 124 C 9.85271484 124.29003906 9.85271484 124.29003906 10.72265625 124.5859375 C 11.49480469 124.84632813 12.26695312 125.10671875 13.0625 125.375 C 13.81660156 125.63023437 14.57070313 125.88546875 15.34765625 126.1484375 C 18.5446716 127.17487247 21.76809589 128.09016163 25 129 C 5.08285785 98.71158924 -25.95869638 77.40721284 -61.57666016 69.42236328 C -89.52780783 63.84701551 -115.84174673 65.60769737 -140.12890625 80.98046875 C -156.79546616 92.59374624 -169.31660276 110.01221667 -173.49609375 130.09765625 C -176.18324371 150.90744549 -173.49413358 170.35629938 -164 189 C -163.53722656 189.92425781 -163.07445312 190.84851563 -162.59765625 191.80078125 C -158.41038761 199.41068687 -151.91265955 207.64176911 -144.69140625 212.578125 C -143 214 -143 214 -142.50390625 215.98828125 C -142.97695777 234.75265835 -149.24881782 253.60928353 -162.91015625 266.8515625 C -164.5625 268.25 -164.5625 268.25 -167 270 C -202.08361387 230.67667449 -220.13173159 174.36718392 -231.30151367 123.91162109 C -231.80611336 121.80821115 -232.38340686 119.72179083 -233.00488281 117.64990234 C -234.07280052 113.73298139 -234.71672752 109.8429628 -235.25390625 105.828125 C -235.41257423 104.68352814 -235.41257423 104.68352814 -235.57444763 103.51580811 C -235.79608973 101.90930535 -236.01529614 100.30246485 -236.23217773 98.6953125 C -236.55979837 96.26999965 -236.89545028 93.8459044 -237.23242188 91.421875 C -238.25731129 83.97706609 -239.22868465 76.55691334 -239.76928711 69.05761719 C -239.94960218 66.80361247 -239.94960218 66.80361247 -241 64 C -243.05249414 46.72777314 -243.05249414 46.72777314 -239.5546875 40.375 C -237.14981247 38.47304561 -234.78627035 37.2865269 -232 36 C -230.77021516 35.29881581 -229.54799689 34.58425953 -228.33203125 33.859375 C -219.78587937 28.80405346 -210.94239527 24.30880547 -202 20 C -201.07960937 19.54882812 -200.15921875 19.09765625 -199.2109375 18.6328125 C -191.69309047 15.06238958 -183.91010481 12.53843943 -176 10 C -174.56887442 9.51342065 -173.13789195 9.02642022 -171.70703125 8.5390625 C -166.62453876 6.84165695 -161.48234597 5.40496876 -156.3125 4 C -155.42111328 3.7525 -154.52972656 3.505 -153.61132812 3.25 C -103.65152804 -10.38508403 -50.55984277 -10.35760342 0 0 Z" stroke-linecap="round" />
</g>
		<g transform="matrix(1 0 0 1 15.35 24.69)"  >
<path style="stroke: none; stroke-width: 1; stroke-dasharray: none; stroke-linecap: butt; stroke-dashoffset: 0; stroke-linejoin: miter; stroke-miterlimit: 4; fill: rgb(38,34,35); fill-rule: nonzero; opacity: 1;"  transform=" translate(56.86, -91.81)" d="M 0 0 C 1.3537799 1.13751549 2.70289773 2.28060674 4.046875 3.4296875 C 4.66691406 3.95651123 5.28695312 4.48333496 5.92578125 5.02612305 C 9.59729112 8.25243182 12.26867412 11.43063703 14.796875 15.6171875 C 13.400397 15.16082214 12.0047242 14.70199262 10.609375 14.2421875 C 9.83207031 13.98695313 9.05476562 13.73171875 8.25390625 13.46875 C 5.73308643 12.59507954 3.27062419 11.61533539 0.796875 10.6171875 C 1.50324097 12.01469238 1.50324097 12.01469238 2.22387695 13.44042969 C 7.2093817 23.33823012 12.03299645 33.30618189 16.77731323 43.32159424 C 18.01606703 45.93402337 19.25979789 48.54404214 20.50415039 51.15380859 C 24.26115363 59.04792742 27.98364063 66.94848262 31.5 74.953125 C 37.20886992 87.88574007 42.7800409 98.56581259 52.796875 108.6171875 C 55.13182738 113.28709227 55.78572164 118.49718592 54.796875 123.6171875 C 52.08296551 130.42896892 47.8195833 136.52474435 43.796875 142.6171875 C 43.12914062 143.67808594 42.46140625 144.73898437 41.7734375 145.83203125 C 37.60869407 152.31557287 33.02204707 158.51671218 28.484375 164.7421875 C 27.87295654 165.58523438 27.26153809 166.42828125 26.6315918 167.296875 C 25.76014526 168.48023438 25.76014526 168.48023438 24.87109375 169.6875 C 24.35119873 170.39664551 23.83130371 171.10579102 23.2956543 171.83642578 C 21.796875 173.6171875 21.796875 173.6171875 18.796875 175.6171875 C 18.52649414 175.01994873 18.25611328 174.42270996 17.97753906 173.80737305 C 6.59191892 148.85301407 -7.48033649 126.72955797 -26.203125 106.6171875 C -28.04488919 104.52361961 -29.87197623 102.41820262 -31.6953125 100.30859375 C -33.14451486 98.6829341 -34.647276 97.14042889 -36.203125 95.6171875 C -35.873125 94.9571875 -35.543125 94.2971875 -35.203125 93.6171875 C -16.18442336 103.03446992 -0.14564694 115.61384073 12.796875 132.6171875 C 13.25126953 133.21257324 13.70566406 133.80795898 14.17382812 134.42138672 C 28.796875 153.67440907 28.796875 153.67440907 28.796875 158.6171875 C 29.456875 158.6171875 30.116875 158.6171875 30.796875 158.6171875 C 31.25582307 157.09653956 31.71399714 155.57565802 32.171875 154.0546875 C 32.42710937 153.20777344 32.68234375 152.36085938 32.9453125 151.48828125 C 33.22632813 150.54082031 33.50734375 149.59335937 33.796875 148.6171875 C 34.15007812 147.50859375 34.50328125 146.4 34.8671875 145.2578125 C 37.45513328 135.12350382 36.93165876 125.67854244 31.69921875 116.6171875 C 31.07144531 115.6271875 30.44367188 114.6371875 29.796875 113.6171875 C 29.08899635 112.4510348 28.38200106 111.28434554 27.67578125 110.1171875 C 17.93484789 94.28843799 5.25072109 80.57769326 -7.19140625 66.84765625 C -10.23548618 63.47256957 -13.22247704 60.04828708 -16.203125 56.6171875 C -15.873125 55.9571875 -15.543125 55.2971875 -15.203125 54.6171875 C -3.24049028 62.24439524 8.4780922 70.05950172 19.796875 78.6171875 C 18.62426036 70.70641409 16.11793179 63.86801229 12.796875 56.6171875 C 12.34957031 55.59367187 11.90226563 54.57015625 11.44140625 53.515625 C 6.35349428 42.55503315 -0.59274716 32.87163844 -7.53515625 23.0234375 C -8.87502169 21.09051687 -10.15446218 19.14796781 -11.390625 17.1484375 C -15.65459645 10.52405329 -20.88879512 6.62706736 -27.48217773 2.4934082 C -31.99893303 -0.35659923 -34.93472309 -3.15477617 -38.203125 -7.3828125 C -41.4956177 -11.30712682 -45.15107782 -12.80203483 -49.890625 -14.4453125 C -50.96691162 -14.83154785 -50.96691162 -14.83154785 -52.06494141 -15.22558594 C -54.10753447 -15.95498441 -56.15492348 -16.66935829 -58.203125 -17.3828125 C -59.09386719 -17.70636719 -59.98460937 -18.02992188 -60.90234375 -18.36328125 C -69.59349957 -21.43717299 -78.18584763 -22.75402965 -87.390625 -22.6953125 C -88.29973633 -22.69112305 -89.20884766 -22.68693359 -90.14550781 -22.68261719 C -102.61854551 -22.47612449 -114.66836743 -20.40598421 -125.203125 -13.3828125 C -124.52507812 -13.42921875 -123.84703125 -13.475625 -123.1484375 -13.5234375 C -111.23923719 -13.98529014 -102.56836161 -8.65207516 -92.42578125 -3.08984375 C -89.31399943 -1.32831581 -89.31399943 -1.32831581 -86.203125 -0.3828125 C -86.00865213 4.47900918 -86.56292725 8.05821266 -88.203125 12.6171875 C -80.06562956 13.03809244 -72.92757435 12.83669356 -65.078125 10.6171875 C -53.84027233 7.50453997 -43.78054957 7.2074916 -33.203125 12.6171875 C -30.95684045 14.15388992 -29.16256059 15.71070963 -27.203125 17.6171875 C -29.85408389 19.16358019 -31.80668995 19.71948664 -34.890625 20.2421875 C -39.74459461 21.34700894 -42.57099361 24.30479358 -46.02734375 27.7421875 C -50.06469404 31.22141216 -54.01873031 32.0431551 -59.3125 31.953125 C -65.73539824 31.20668007 -71.98055202 29.32744069 -78.203125 27.6171875 C -73.11632803 34.9609251 -67.18462179 40.1220739 -60.203125 45.6171875 C -55.8205646 49.22510002 -51.51125509 52.92101542 -47.203125 56.6171875 C -46.25566406 57.42671875 -45.30820312 58.23625 -44.33203125 59.0703125 C -39.55526144 63.24377557 -35.52539358 67.19081549 -32.203125 72.6171875 C -32.203125 73.2771875 -32.203125 73.9371875 -32.203125 74.6171875 C -36.25585938 73.94173177 -40.30859375 73.26627604 -44.36132812 72.59082031 C -45.05162109 72.47577148 -45.74191406 72.36072266 -46.453125 72.2421875 C -47.12214844 72.13068359 -47.79117188 72.01917969 -48.48046875 71.90429688 C -49.47240234 71.73897461 -49.47240234 71.73897461 -50.484375 71.5703125 C -59.8359375 70.01171875 -59.8359375 70.01171875 -69.1875 68.453125 C -70.15913086 68.29118652 -71.13076172 68.12924805 -72.13183594 67.96240234 C -73.15712402 67.791521 -73.15712402 67.791521 -74.203125 67.6171875 C -72.09125895 71.25066279 -69.99577721 74.02001835 -66.953125 76.9296875 C -62.80387683 80.99914243 -58.93119457 85.16048195 -55.203125 89.6171875 C -54.74953613 90.15698242 -54.29594727 90.69677734 -53.82861328 91.25292969 C -37.8620242 110.32710993 -24.33421104 130.59646904 -12.765625 152.6171875 C -12.26933594 153.56029785 -11.77304687 154.5034082 -11.26171875 155.47509766 C -4.90492801 167.7783535 -4.90492801 167.7783535 -3.203125 173.6171875 C -3.533125 174.2771875 -3.863125 174.9371875 -4.203125 175.6171875 C -10.95218113 167.6823159 -17.63828315 159.70572104 -24.203125 151.6171875 C -22.22428447 157.84907658 -19.93262841 163.87145533 -17.375 169.88671875 C -16.65056016 171.61633486 -15.92661589 173.34615861 -15.203125 175.07617188 C -14.07346737 177.76873651 -12.94038771 180.45967454 -11.79882812 183.1472168 C -10.6890012 185.76455862 -9.59343569 188.38749516 -8.5 191.01171875 C -8.15426941 191.81591751 -7.80853882 192.62011627 -7.45233154 193.44868469 C -7.14160706 194.20014267 -6.83088257 194.95160065 -6.51074219 195.72583008 C -6.23333191 196.3826326 -5.95592163 197.03943512 -5.67010498 197.71614075 C -5.09985298 200.03760155 -5.40765958 201.38312184 -6.203125 203.6171875 C -7.4465332 205.14111328 -7.4465332 205.14111328 -9.00390625 206.5625 C -9.56916016 207.08199219 -10.13441406 207.60148438 -10.71679688 208.13671875 C -11.6072168 208.93142578 -11.6072168 208.93142578 -12.515625 209.7421875 C -13.09763672 210.27972656 -13.67964844 210.81726563 -14.27929688 211.37109375 C -17.14013602 213.96950032 -19.67114958 215.98365486 -23.203125 217.6171875 C -23.47874268 216.89466797 -23.75436035 216.17214844 -24.03833008 215.42773438 C -37.58074678 180.07395884 -52.86879635 146.66897439 -76.203125 116.6171875 C -75.78804688 117.86242187 -75.37296875 119.10765625 -74.9453125 120.390625 C -74.67041992 121.2165918 -74.39552734 122.04255859 -74.11230469 122.89355469 C -73.50670505 124.70775166 -72.89798465 126.52090989 -72.28613281 128.33300781 C -65.67614816 147.97274638 -59.56586717 167.7430245 -59.203125 188.6171875 C -62.06982958 185.75048292 -62.36443598 182.32699311 -63.265625 178.4921875 C -71.93789572 143.82657037 -88.92705152 107.10390551 -119.734375 87.015625 C -122.02027287 85.45289629 -122.02027287 85.45289629 -124.203125 85.6171875 C -124.89768631 93.08781692 -125.59135374 100.55852896 -126.28442383 108.02929688 C -126.51989901 110.566425 -126.75557265 113.10353471 -126.99145508 115.640625 C -127.33207581 119.30463825 -127.67196331 122.96871892 -128.01171875 126.6328125 C -128.16803017 128.31168549 -128.16803017 128.31168549 -128.32749939 130.0244751 C -128.42752762 131.10468933 -128.52755585 132.18490356 -128.63061523 133.29785156 C -128.71721909 134.23050842 -128.80382294 135.16316528 -128.89305115 136.12408447 C -129.35131296 141.28658279 -129.77271707 146.45229236 -130.203125 151.6171875 C -126.903125 144.0271875 -123.603125 136.4371875 -120.203125 128.6171875 C -119.873125 128.6171875 -119.543125 128.6171875 -119.203125 128.6171875 C -118.24043508 154.43208792 -123.33048975 176.6139567 -135.203125 199.6171875 C -145.55561788 191.33519319 -153.97139463 180.94241967 -162.203125 170.6171875 C -161.328125 169.59635417 -160.453125 168.57552083 -159.578125 167.5546875 C -159.02640625 166.90371094 -158.4746875 166.25273437 -157.90625 165.58203125 C -156.88359241 164.40222215 -155.83783237 163.24109321 -154.75 162.12109375 C -140.80425822 147.37078995 -136.47321232 126.26875516 -136.74072266 106.60327148 C -137.11103106 96.02289582 -138.65340454 85.61813907 -142.203125 75.6171875 C -143.345366 77.9016695 -143.36988476 79.32218948 -143.44921875 81.86328125 C -143.48208984 82.70052734 -143.51496094 83.53777344 -143.54882812 84.40039062 C -143.60988658 86.16588938 -143.66719574 87.93152189 -143.72070312 89.69726562 C -143.75486328 90.53580078 -143.78902344 91.37433594 -143.82421875 92.23828125 C -143.8492749 93.0058374 -143.87433105 93.77339355 -143.90014648 94.56420898 C -144.203125 96.6171875 -144.203125 96.6171875 -146.203125 99.6171875 C -155.87599749 89.04867867 -163.00069555 76.67716884 -166.203125 62.6171875 C -166.36723877 61.98981689 -166.53135254 61.36244629 -166.70043945 60.71606445 C -171.20839467 42.5370039 -168.97217005 22.5097929 -159.890625 6.1171875 C -147.62767495 -13.04367196 -130.54335123 -27.11226246 -108.078125 -32.1328125 C -68.68534808 -39.40517853 -30.25987813 -24.71082899 0 0 Z" stroke-linecap="round" />
</g>
		<g transform="matrix(1 0 0 1 26.77 21.67)"  >
<path style="stroke: none; stroke-width: 1; stroke-dasharray: none; stroke-linecap: butt; stroke-dashoffset: 0; stroke-linejoin: miter; stroke-miterlimit: 4; fill: rgb(252,252,252); fill-rule: nonzero; opacity: 1;"  transform=" translate(-15.77, -108.17)" d="M 0 0 C 1.10746582 0.35336426 1.10746582 0.35336426 2.23730469 0.71386719 C 4.54030694 1.45630154 6.83411468 2.22101976 9.125 3 C 9.82399414 3.2367041 10.52298828 3.4734082 11.24316406 3.71728516 C 16.60763326 5.63502439 21.60824598 7.73195641 24.6875 12.75 C 27.53605689 16.75337725 30.83909854 19.00763603 34.85546875 21.77734375 C 35.89316406 22.51082031 36.93085938 23.24429687 38 24 C 39.04353638 24.71579224 39.04353638 24.71579224 40.1081543 25.44604492 C 46.33141652 29.94449297 50.28863915 35.02638302 54.4375 41.4375 C 55.08001709 42.40816406 55.72253418 43.37882812 56.38452148 44.37890625 C 58.27195071 47.24275483 60.13692024 50.12027546 62 53 C 62.99158772 54.50169829 63.98371769 56.00303878 64.9765625 57.50390625 C 70.31398984 65.68078622 74.55372955 73.83141756 78 83 C 78.42410156 84.12148438 78.84820312 85.24296875 79.28515625 86.3984375 C 82.24981003 94.69946809 82.24981003 94.69946809 81 99 C 80.50822266 98.6282666 80.01644531 98.2565332 79.50976562 97.87353516 C 68.64624155 89.69058817 57.67141247 81.98674898 46 75 C 46.38454346 75.44512939 46.76908691 75.89025879 47.1652832 76.34887695 C 50.23553478 79.91471469 53.24420825 83.51550158 56.1875 87.1875 C 59.4996359 91.25669554 62.93069562 95.15928688 66.5 99 C 75.74627384 109.00840839 83.6718152 119.3997233 90.78125 131.01074219 C 91.84680362 132.7499511 92.93701845 134.47400211 94.03125 136.1953125 C 99.14004729 145.03931535 99.34056712 154.14523347 97.4140625 163.99609375 C 96.73214904 166.40478807 95.94390878 168.68274646 95 171 C 94.71382812 171.71285156 94.42765625 172.42570313 94.1328125 173.16015625 C 93.45359404 174.78704617 92.73215329 176.39623565 92 178 C 91.34 178 90.68 178 90 178 C 89.57332031 177.18660156 89.14664063 176.37320313 88.70703125 175.53515625 C 74.02068435 148.61523378 53.23176403 128.04271217 26 114 C 28.66945645 117.16119843 31.3402268 120.29505314 34.16796875 123.31640625 C 48.55006173 138.68389548 80.25099092 172.92072672 79.96875 195.5 C 78.63952248 198.93026457 76.405794 201.2287029 73.875 203.8125 C 72.87166415 204.86909735 71.86906057 205.92639053 70.8671875 206.984375 C 70.37702148 207.49677734 69.88685547 208.00917969 69.38183594 208.53710938 C 66.98232968 211.07736406 64.71573898 213.73045343 62.4375 216.37890625 C 61.00513037 217.99421439 59.61038775 219.56027834 58 221 C 57.34 221 56.68 221 56 221 C 55.50072998 219.794646 55.00145996 218.58929199 54.48706055 217.34741211 C 52.62567275 212.85390763 50.76372454 208.36063555 48.90161133 203.86743164 C 48.0974231 201.92673932 47.29338465 199.98598492 46.48950195 198.04516602 C 45.33063987 195.24739309 44.17123033 192.44984756 43.01171875 189.65234375 C 42.47716316 188.36129982 42.47716316 188.36129982 41.93180847 187.04417419 C 41.59168228 186.22385208 41.25155609 185.40352997 40.90112305 184.55834961 C 40.58130463 183.78192108 40.26148621 183.00549255 39.93197632 182.20553589 C 39.32818577 180.77665652 38.70166983 179.35708418 38.04873657 177.94998169 C 35.90019589 173.29941233 35.90019589 173.29941233 37 170 C 42.5907039 176.09294207 47.96511908 182.30942474 53.15234375 188.75 C 54.95605161 191.02119749 54.95605161 191.02119749 57 193 C 49.38913208 175.20587585 40.98216103 157.97787598 30 142 C 29.4126709 141.14462646 29.4126709 141.14462646 28.81347656 140.27197266 C 20.37452553 128.06915426 11.38113228 116.34872417 1.28515625 105.46875 C -1.36418941 102.60655093 -3.91314641 99.66714196 -6.4609375 96.71484375 C -7.89090551 95.12155452 -9.37956255 93.65405006 -10.9375 92.1875 C -13 90 -13 90 -13 87 C -7.55843694 86.87651692 -2.66221018 87.25367866 2.7109375 88.27734375 C 3.75225327 88.47355064 3.75225327 88.47355064 4.81460571 88.67372131 C 6.26556683 88.94856591 7.7158757 89.22687518 9.16552734 89.50854492 C 11.38883979 89.94018691 13.61406299 90.36058806 15.83984375 90.77929688 C 26.69119231 92.84559615 26.69119231 92.84559615 29 94 C 20.99642883 81.00828765 9.08779282 72.07609925 -2.6796875 62.65527344 C -4.44124334 61.23917827 -6.18990394 59.80826962 -7.9375 58.375 C -8.48140381 57.94380859 -9.02530762 57.51261719 -9.58569336 57.06835938 C -13.57314501 53.77251341 -15.67918249 50.5297884 -18 46 C -16.66634524 46.2901934 -15.33309785 46.58225892 -14 46.875 C -13.175 47.05546875 -12.35 47.2359375 -11.5 47.421875 C -9.30939076 47.92845339 -7.16303016 48.51446729 -5 49.125 C 1.89033122 50.82024022 7.74075579 50.82043801 14.0390625 47.34765625 C 16.20752009 45.85738161 18.02761506 44.18297408 19.9375 42.375 C 23.93772648 38.66107203 27.64926612 37.60691195 33 37 C 23.52189723 30.1654497 15.74205016 27.92343677 4 29 C 0.59155434 29.69729774 -2.7474999 30.63458201 -6.09814453 31.56567383 C -12.97913013 33.41246421 -20.14313087 34.28562304 -27 32 C -26.34 27.71 -25.68 23.42 -25 19 C -26.65 18.67 -28.3 18.34 -30 18 C -32.24829102 16.984375 -32.24829102 16.984375 -34.50390625 15.75 C -35.32697266 15.3065625 -36.15003906 14.863125 -36.99804688 14.40625 C -37.84431641 13.9421875 -38.69058594 13.478125 -39.5625 13 C -41.24912143 12.0793272 -42.93785238 11.16250593 -44.62890625 10.25 C -45.37213135 9.84265625 -46.11535645 9.4353125 -46.88110352 9.015625 C -51.35481603 6.87129454 -55.31547257 6.89180993 -60.25 6.9375 C -62.14492188 6.95103516 -62.14492188 6.95103516 -64.078125 6.96484375 C -65.04234375 6.97644531 -66.0065625 6.98804688 -67 7 C -48.58092096 -7.24948532 -21.25339553 -6.96748032 0 0 Z" stroke-linecap="round" />
</g>
		<g transform="matrix(1 0 0 1 -7.54 98.9)"  >
<path style="stroke: none; stroke-width: 1; stroke-dasharray: none; stroke-linecap: butt; stroke-dashoffset: 0; stroke-linejoin: miter; stroke-miterlimit: 4; fill: rgb(252,252,252); fill-rule: nonzero; opacity: 1;"  transform=" translate(-44.46, -81.4)" d="M 0 0 C 20.68052491 7.4731056 36.2182127 30.19213955 45.34472656 49.20800781 C 46.24259551 51.1330917 47.1226684 53.06548891 48 55 C 48.50789063 56.07894531 49.01578125 57.15789062 49.5390625 58.26953125 C 52.93798338 65.78532688 55.62332815 73.49886244 58.25 81.3125 C 58.59160156 82.32699219 58.93320312 83.34148437 59.28515625 84.38671875 C 61.20529977 90.21599909 62.77828861 95.98494139 64 102 C 62.4779421 79.74646378 56.44121511 59.14217123 48.81835938 38.26464844 C 47.82868303 35.52591402 46.90150819 32.768918 46 30 C 46.66 30 47.32 30 48 30 C 49.59222976 31.98722522 51.0549802 33.97119841 52.5 36.0625 C 52.94214844 36.69446289 53.38429688 37.32642578 53.83984375 37.97753906 C 55.23450326 39.97964587 56.61753784 41.98945748 58 44 C 58.42410156 44.6089209 58.84820312 45.2178418 59.28515625 45.84521484 C 75.31770754 68.8951485 87.31519472 94.30401026 97.08203125 120.56982422 C 97.68031582 122.15368716 98.30174367 123.72905866 98.94921875 125.29345703 C 101.36444949 131.21541703 101.36444949 131.21541703 100 135 C 90.2431641 145.14078546 75.97878504 152.55661575 63.75 159.25 C 62.69607056 159.84252563 62.69607056 159.84252563 61.62084961 160.44702148 C 58.54606648 162.08051169 56.53135839 163.04729368 53.015625 162.734375 C 52.35046875 162.49203125 51.6853125 162.2496875 51 162 C 50.98582031 160.98550781 50.97164063 159.97101563 50.95703125 158.92578125 C 50.6364065 146.97473041 49.26971254 135.21182405 47.6875 123.375 C 47.58676178 122.60233795 47.48602356 121.8296759 47.38223267 121.03359985 C 45.37179963 105.72858337 42.40573953 90.64811771 37.875 75.875 C 37.58931152 74.9363208 37.30362305 73.9976416 37.00927734 73.03051758 C 33.25365204 61.10685034 28.59544571 49.19089143 23 38 C 23.06928711 38.83233154 23.13857422 39.66466309 23.20996094 40.5222168 C 24.12816828 53.0348341 24.22051726 65.53435361 24.24023438 78.0769043 C 24.24988105 81.76699892 24.28097238 85.456521 24.3125 89.14648438 C 24.39114852 107.15024087 23.70373909 125.31999283 20 143 C 11.57235657 137.91665952 4.35301616 131.48540363 -3 125 C -3.95648438 124.15695312 -4.91296875 123.31390625 -5.8984375 122.4453125 C -7.93848532 120.63694203 -9.97312918 118.82311132 -12 117 C -10.61568615 112.64270735 -8.96628702 108.49594227 -7.125 104.3125 C -6.07711383 101.8776121 -5.03871173 99.43883088 -4 97 C -3.43539063 95.68708984 -3.43539063 95.68708984 -2.859375 94.34765625 C 3.39665847 78.63309599 4.47785132 62.72479618 4 46 C 0.7 53.59 -2.6 61.18 -6 69 C -6.33 69 -6.66 69 -7 69 C -6.20206349 56.28809736 -5.01118475 43.60959281 -3.84326172 30.92749023 C -3.49673293 27.1519038 -3.15656611 23.37577428 -2.81640625 19.59960938 C -2.59674479 17.20569329 -2.37670679 14.81181172 -2.15625 12.41796875 C -2.05517944 11.28586472 -1.95410889 10.15376068 -1.84997559 8.98735046 C -1.75317505 7.95149307 -1.65637451 6.91563568 -1.55664062 5.84838867 C -1.47305298 4.93353195 -1.38946533 4.01867523 -1.30334473 3.07609558 C -1 1 -1 1 0 0 Z" stroke-linecap="round" />
</g>
		<g transform="matrix(1 0 0 1 -39.61 -38.7)"  >
<path style="stroke: none; stroke-width: 1; stroke-dasharray: none; stroke-linecap: butt; stroke-dashoffset: 0; stroke-linejoin: miter; stroke-miterlimit: 4; fill: rgb(251,251,251); fill-rule: nonzero; opacity: 1;"  transform=" translate(7.61, -29.8)" d="M 0 0 C -3.12648749 2.08432499 -6.05730868 3.28558611 -9.5625 4.625 C -10.71878906 5.07101562 -11.87507813 5.51703125 -13.06640625 5.9765625 C -16 7 -16 7 -18 7 C -18 7.66 -18 8.32 -18 9 C -17.43796875 8.84144531 -16.8759375 8.68289063 -16.296875 8.51953125 C -13.89835775 7.97700949 -11.70741474 7.76184854 -9.25 7.6875 C -8.45078125 7.65011719 -7.6515625 7.61273438 -6.828125 7.57421875 C 0.68136413 8.70479101 5.3747916 12.84947914 9.9375 18.625 C 10.97029501 19.88107996 12.00415738 21.13628302 13.0390625 22.390625 C 13.53954102 23.00486328 14.04001953 23.61910156 14.55566406 24.25195312 C 16.57107154 26.69115488 18.68325869 29.03501467 20.8125 31.375 C 23.98815345 34.87621504 27.12170391 38.40862843 30.2265625 41.97265625 C 33.46047858 45.66957793 36.732083 49.33314248 40 53 C 35.86184964 54.37938345 32.9999547 52.91619798 29.04296875 51.54296875 C 28.26238602 51.27994461 27.48180328 51.01692047 26.67756653 50.7459259 C 24.17793834 49.90151658 21.68275806 49.04472677 19.1875 48.1875 C 17.51785812 47.620919 15.84793906 47.05515414 14.17773438 46.49023438 C 11.09614586 45.44671247 8.01626207 44.39845397 4.93823242 43.34448242 C 3.92600365 43.00085411 3.92600365 43.00085411 2.89332581 42.65028381 C 1.18788619 42.0645316 -0.5089724 41.45393731 -2.20458984 40.84033203 C -6.72221064 39.48228393 -11.12802319 39.67174856 -15.8125 39.6875 C -17.23272461 39.66333008 -17.23272461 39.66333008 -18.68164062 39.63867188 C -26.08504361 39.63357662 -32.28287816 40.88799896 -38.75 44.5625 C -43.95628158 50.20263837 -46.48519637 57.85266337 -49 65 C -56.23060987 56.12606971 -55.46582872 44.98408755 -54.83203125 34.12109375 C -53.33873799 21.2084991 -46.33932052 7.87145641 -36.1875 -0.25 C -24.291687 -6.78103459 -11.6480821 -7.51489168 0 0 Z" stroke-linecap="round" />
</g>
		<g transform="matrix(1 0 0 1 15.07 -1.4)"  >
<path style="stroke: none; stroke-width: 1; stroke-dasharray: none; stroke-linecap: butt; stroke-dashoffset: 0; stroke-linejoin: miter; stroke-miterlimit: 4; fill: rgb(244,244,244); fill-rule: nonzero; opacity: 1;"  transform=" translate(54.26, -74.44)" d="M 0 0 C 3.08638827 2.4763197 6.14765863 4.97786436 9.17236328 7.52929688 C 9.73624756 8.00423584 10.30013184 8.4791748 10.88110352 8.96850586 C 17.07779921 14.33613789 21.97419115 20.50509122 26.54736328 27.27929688 C 27.15064453 28.16198242 27.15064453 28.16198242 27.76611328 29.0625 C 28.73854828 30.48642268 29.70600923 31.91374033 30.67236328 33.34179688 C 28.67236328 34.34179688 28.67236328 34.34179688 25.70361328 33.38085938 C 24.53830078 32.91421875 23.37298828 32.44757813 22.17236328 31.96679688 C 21.00705078 31.5053125 19.84173828 31.04382813 18.64111328 30.56835938 C 16.96370219 29.87532374 15.29569476 29.15346261 13.67236328 28.34179688 C 14.34271606 29.71223145 14.34271606 29.71223145 15.02661133 31.11035156 C 17.1411146 35.43583464 19.2513338 39.76339897 21.35986328 44.09179688 C 21.93518295 45.27261841 21.93518295 45.27261841 22.52212524 46.47729492 C 28.28594114 58.31819229 33.93098339 70.20493197 39.3840332 82.19238281 C 43.73070412 91.68583271 48.00022901 100.94291974 54.92236328 108.84179688 C 61.55145648 116.47529813 61.55145648 116.47529813 62.04736328 120.02929688 C 61.55519531 124.3767806 59.81327827 127.57608034 57.67236328 131.34179688 C 57.34236328 131.34179688 57.01236328 131.34179688 56.67236328 131.34179688 C 56.70330078 130.21644531 56.70330078 130.21644531 56.73486328 129.06835938 C 56.5827324 121.51886416 55.06174969 117.46143558 49.97314453 111.88867188 C 42.92823822 104.09023569 38.69206308 95.56829238 34.35986328 86.09179688 C 33.66973933 84.60108145 32.97855581 83.11085614 32.28637695 81.62109375 C 30.830434 78.48600359 29.37858065 75.34906606 27.92919922 72.2109375 C 24.52474905 64.85198773 21.05969621 57.5215928 17.59463501 50.19104004 C 16.50959976 47.8941608 15.42702253 45.59613752 14.3449707 43.29785156 C 13.6691849 41.86447035 12.99316698 40.43119855 12.31689453 38.99804688 C 11.8389872 37.98487396 11.8389872 37.98487396 11.35142517 36.95123291 C 9.15061987 32.30400171 6.86598122 27.70595466 4.49145508 23.14453125 C 3.67236328 21.34179688 3.67236328 21.34179688 3.67236328 19.34179688 C 4.28724609 19.55835938 4.90212891 19.77492188 5.53564453 19.99804688 C 6.34388672 20.27648437 7.15212891 20.55492187 7.98486328 20.84179688 C 8.78537109 21.12023437 9.58587891 21.39867187 10.41064453 21.68554688 C 12.7600575 22.48112795 12.7600575 22.48112795 15.67236328 22.34179688 C -3.7484499 -2.32788474 -39.16776193 -19.29924393 -69.90039062 -23.41503906 C -92.90894595 -25.7200603 -115.94621309 -23.34755644 -134.73388672 -8.78710938 C -135.58982422 -8.08457031 -136.44576172 -7.38203125 -137.32763672 -6.65820312 C -138.20419922 -5.94535156 -139.08076172 -5.2325 -139.98388672 -4.49804688 C -153.54070996 7.07833683 -163.01205795 24.07148456 -164.55517578 41.98291016 C -165.90772248 66.64774765 -159.88801686 87.05623844 -144.32763672 106.34179688 C -143.99763672 106.67179688 -143.66763672 107.00179687 -143.32763672 107.34179688 C -142.20289953 105.0923225 -142.14769866 103.70055891 -142.04638672 101.20117188 C -142.00900391 100.37746094 -141.97162109 99.55375 -141.93310547 98.70507812 C -141.89830078 97.84269531 -141.86349609 96.9803125 -141.82763672 96.09179688 C -141.60869776 90.7642823 -141.35665574 85.5897939 -140.32763672 80.34179688 C -138.18945225 84.05245781 -137.26665007 88.03019435 -136.26513672 92.15429688 C -136.09175781 92.84072266 -135.91837891 93.52714844 -135.73974609 94.234375 C -130.1943057 116.69234625 -132.06428446 142.01423041 -144.14404297 162.09179688 C -148.68977821 168.85754236 -153.90083904 174.35568239 -160.32763672 179.34179688 C -160.98763672 178.68179688 -161.64763672 178.02179688 -162.32763672 177.34179688 C -162.08548901 173.41733395 -159.78161571 171.43349386 -157.14013672 168.71679688 C -146.73339952 157.40297482 -141.14689898 143.58675407 -139.32763672 128.34179688 C -139.17423828 127.4884375 -139.02083984 126.63507813 -138.86279297 125.75585938 C -138.54902154 122.96200422 -138.53457068 121.04703326 -139.32763672 118.34179688 C -141.5463793 115.75918051 -143.95805447 113.73599318 -146.60107422 111.59179688 C -159.96753857 100.56159134 -167.66122646 81.18625721 -169.97216797 64.31835938 C -172.06016198 40.96036041 -168.9709409 20.78493513 -154.32763672 1.90429688 C -153.01684679 0.3639912 -151.68417507 -1.1580313 -150.32763672 -2.65820312 C -149.69083984 -3.36460937 -149.05404297 -4.07101562 -148.39794922 -4.79882812 C -108.87800723 -46.38206026 -40.72248863 -32.00592809 0 0 Z" stroke-linecap="round" />
</g>
		<g transform="matrix(1 0 0 1 -16.11 116)"  >
<path style="stroke: none; stroke-width: 1; stroke-dasharray: none; stroke-linecap: butt; stroke-dashoffset: 0; stroke-linejoin: miter; stroke-miterlimit: 4; fill: rgb(39,34,35); fill-rule: nonzero; opacity: 1;"  transform=" translate(-13.89, -61.5)" d="M 0 0 C 2.32632842 2.11439682 3.62124283 3.95829496 4.83203125 6.8515625 C 5.15252441 7.61106201 5.47301758 8.37056152 5.80322266 9.15307617 C 6.13628418 9.96881104 6.4693457 10.7845459 6.8125 11.625 C 7.1636084 12.47747314 7.5147168 13.32994629 7.87646484 14.20825195 C 8.93285907 16.79971154 9.97120971 19.39746866 11 22 C 11.28311035 22.71559082 11.5662207 23.43118164 11.85791016 24.16845703 C 19.84528125 44.70953613 23.95739523 66.24537586 27 88 C 27.11859375 88.81082031 27.2371875 89.62164062 27.359375 90.45703125 C 28.93993461 101.35160285 29.23140348 112.00833476 29 123 C 20.74616662 119.16250344 12.62252495 115.12099217 5 110.125 C 4.09290283 109.58286865 4.09290283 109.58286865 3.16748047 109.02978516 C 1.5 107.8828125 1.5 107.8828125 -1 105 C -1.82872851 98.63760317 -0.75340768 92.00806837 -0.01171875 85.671875 C 1.27291287 73.45314496 1.26773855 61.27119575 1.20581055 48.99658203 C 1.18745671 45.24114199 1.18530247 41.48594923 1.18554688 37.73046875 C 1.16653217 25.12091596 0.97878975 12.57446352 0 0 Z" stroke-linecap="round" />
</g>
		<g transform="matrix(1 0 0 1 -110.16 -109.13)"  >
<path style="stroke: none; stroke-width: 1; stroke-dasharray: none; stroke-linecap: butt; stroke-dashoffset: 0; stroke-linejoin: miter; stroke-miterlimit: 4; fill: rgb(245,244,244); fill-rule: nonzero; opacity: 1;"  transform=" translate(10.16, -22.37)" d="M 0 0 C 3.45023367 3.76904376 6.09069654 8.09339353 8.75 12.4375 C 9.16121094 13.08009766 9.57242188 13.72269531 9.99609375 14.38476562 C 12.41438761 18.34160857 13.82363953 21.22833626 13 26 C 11.63671875 27.8359375 11.63671875 27.8359375 9.6875 29.375 C 8.96304688 29.95636719 8.23859375 30.53773438 7.4921875 31.13671875 C 3.89096264 33.82917056 0.27875533 36.50091336 -3.38671875 39.10546875 C -6.0601794 40.95212445 -6.0601794 40.95212445 -8.39453125 43.30078125 C -11 45 -11 45 -14.45703125 45.11328125 C -18.76339032 43.76012542 -20.90990925 41.57256383 -23.6875 38.1875 C -24.60741403 37.11792254 -25.52797506 36.04890116 -26.44921875 34.98046875 C -27.29097656 33.99691406 -28.13273438 33.01335937 -29 32 C -29.75796875 31.28328125 -30.5159375 30.5665625 -31.296875 29.828125 C -33 28 -33 28 -33.5625 24.5625 C -32.21554843 16.03180675 -20.08706421 9.19282212 -13.46484375 4.01953125 C -8.98967387 0.78789056 -5.70584741 -1.23067297 0 0 Z" stroke-linecap="round" />
</g>
		<g transform="matrix(1 0 0 1 71.5 67.5)"  >
<path style="stroke: none; stroke-width: 1; stroke-dasharray: none; stroke-linecap: butt; stroke-dashoffset: 0; stroke-linejoin: miter; stroke-miterlimit: 4; fill: rgb(39,35,36); fill-rule: nonzero; opacity: 1;"  transform=" translate(-35.5, -41)" d="M 0 0 C 10.72849663 4.93042592 19.98968016 10.36157402 29 18 C 29.96808594 18.81597656 30.93617188 19.63195312 31.93359375 20.47265625 C 38.3789161 26.11343073 43.81843822 32.19267974 49 39 C 49.45439453 39.59538574 49.90878906 40.19077148 50.37695312 40.80419922 C 65 60.05722157 65 60.05722157 65 65 C 65.66 65 66.32 65 67 65 C 67.33 63.35 67.66 61.7 68 60 C 69.485 60.99 69.485 60.99 71 62 C 69.44052267 64.21052126 67.87753183 66.41841611 66.3125 68.625 C 65.65991211 69.55119141 65.65991211 69.55119141 64.99414062 70.49609375 C 62.15808974 74.48757278 59.17970328 78.27602318 56 82 C 53.3377801 78.88993002 51.80290356 75.55689332 50.14746094 71.85888672 C 40.33820928 49.96686199 26.30766287 30.51799722 10 13 C 8.15823581 10.90643211 6.33114877 8.80101512 4.5078125 6.69140625 C 3.01648381 4.96919436 3.01648381 4.96919436 1.3046875 3.40234375 C 0 2 0 2 0 0 Z" stroke-linecap="round" />
</g>
		<g transform="matrix(1 0 0 1 55 -138.7)"  >
<path style="stroke: none; stroke-width: 1; stroke-dasharray: none; stroke-linecap: butt; stroke-dashoffset: 0; stroke-linejoin: miter; stroke-miterlimit: 4; fill: rgb(245,244,244); fill-rule: nonzero; opacity: 1;"  transform=" translate(-4.3, -19.29)" d="M 0 0 C 17.9934653 4.20408068 17.9934653 4.20408068 25.265625 8.71484375 C 26.61550441 11.03765511 26.41547681 12.73420385 25.91455078 15.32470703 C 24.58990674 20.01101734 22.63972831 24.4580591 20.73828125 28.93359375 C 20.31353516 29.95130859 19.88878906 30.96902344 19.45117188 32.01757812 C 18.40825402 34.51355006 17.35798183 37.00614589 16.30078125 39.49609375 C 14.65078125 39.16609375 13.00078125 38.83609375 11.30078125 38.49609375 C 11.90002349 34.30139804 12.87578066 30.48609541 14.30078125 26.49609375 C 13.46804688 26.37234375 12.6353125 26.24859375 11.77734375 26.12109375 C 8.01436325 25.44460287 4.358397 24.50844629 0.67578125 23.49609375 C -3.10967425 22.46776135 -6.89334829 21.44756136 -10.69921875 20.49609375 C -11.35921875 23.79609375 -12.01921875 27.09609375 -12.69921875 30.49609375 C -14.34921875 30.49609375 -15.99921875 30.49609375 -17.69921875 30.49609375 C -17.27804138 23.77177923 -16.42002478 17.13955043 -15.32421875 10.49609375 C -15.15345825 9.3834314 -15.15345825 9.3834314 -14.97924805 8.24829102 C -14.47799484 5.33473584 -14.0273609 2.96381186 -12.3125 0.51953125 C -8.63655443 -1.81242453 -4.05358916 -0.75674819 0 0 Z" stroke-linecap="round" />
</g>
		<g transform="matrix(1 0 0 1 11.11 -145.61)"  >
<path style="stroke: none; stroke-width: 1; stroke-dasharray: none; stroke-linecap: butt; stroke-dashoffset: 0; stroke-linejoin: miter; stroke-miterlimit: 4; fill: rgb(242,242,242); fill-rule: nonzero; opacity: 1;"  transform=" translate(-20.11, -16.89)" d="M 0 0 C 4.42910272 -0.04973511 8.85805397 -0.08587704 13.28735352 -0.10986328 C 14.79161413 -0.11987124 16.29585553 -0.1334818 17.80004883 -0.15087891 C 19.97221643 -0.17535809 22.14412504 -0.18653523 24.31640625 -0.1953125 C 25.62037354 -0.20578613 26.92434082 -0.21625977 28.26782227 -0.22705078 C 32.26253699 0.0159717 35.25051413 0.64632423 39 2 C 40.27959591 4.55919182 40.16816536 6.45484028 40.1875 9.3125 C 40.20167969 10.25738281 40.21585937 11.20226562 40.23046875 12.17578125 C 39.98532259 15.17986051 39.3542544 17.31525006 38 20 C 35.04335481 21.4783226 32.25770263 21.06032783 29 21 C 29.5775 21.77085937 30.155 22.54171875 30.75 23.3359375 C 31.4925 24.33882812 32.235 25.34171875 33 26.375 C 34.11375 27.87160156 34.11375 27.87160156 35.25 29.3984375 C 37 32 37 32 37 34 C 33.75390625 33.84375 33.75390625 33.84375 30 33 C 27.83984375 30.53125 27.83984375 30.53125 25.9375 27.5 C 23.15804207 23.76992885 21.87038844 22.22405126 17.3125 21.05078125 C 13.83588316 20.83699735 10.47525022 20.78743135 7 21 C 7 24.63 7 28.26 7 32 C 5.02 32 3.04 32 1 32 C 0.82939043 28.91684139 0.66345412 25.83353993 0.5 22.75 C 0.45230469 21.89664063 0.40460938 21.04328125 0.35546875 20.1640625 C 0.00412759 13.43838891 -0.05267824 6.7340355 0 0 Z" stroke-linecap="round" />
</g>
		<g transform="matrix(1 0 0 1 -73.78 -131.17)"  >
<path style="stroke: none; stroke-width: 1; stroke-dasharray: none; stroke-linecap: butt; stroke-dashoffset: 0; stroke-linejoin: miter; stroke-miterlimit: 4; fill: rgb(244,244,244); fill-rule: nonzero; opacity: 1;"  transform=" translate(15.78, -21.33)" d="M 0 0 C 4.23840261 4.0029358 5.64494257 8.46387549 6.4375 14.125 C 6 17 6 17 4.140625 18.8828125 C -0.21563474 21.81949506 -4.84934808 23.73601676 -9.6875 25.75 C -10.64978516 26.16121094 -11.61207031 26.57242188 -12.60351562 26.99609375 C -19.71409105 30 -19.71409105 30 -22 30 C -20.35 33.63 -18.7 37.26 -17 41 C -20 43 -20 43 -23 43 C -25.12605794 39.08390672 -27.25066275 35.16702692 -29.375 31.25 C -29.97828125 30.13882813 -30.5815625 29.02765625 -31.203125 27.8828125 C -31.78320312 26.81289062 -32.36328125 25.74296875 -32.9609375 24.640625 C -33.76217041 23.16384277 -33.76217041 23.16384277 -34.57958984 21.65722656 C -35.75722342 19.4541733 -36.89785598 17.24149121 -38 15 C -9.04231037 -0.94976785 -9.04231037 -0.94976785 0 0 Z" stroke-linecap="round" />
</g>
		<g transform="matrix(1 0 0 1 -32.5 -143.47)"  >
<path style="stroke: none; stroke-width: 1; stroke-dasharray: none; stroke-linecap: butt; stroke-dashoffset: 0; stroke-linejoin: miter; stroke-miterlimit: 4; fill: rgb(243,243,243); fill-rule: nonzero; opacity: 1;"  transform=" translate(17.5, -19.03)" d="M 0 0 C 0 1.65 0 3.3 0 5 C -1.134375 5.19335938 -2.26875 5.38671875 -3.4375 5.5859375 C -4.95836032 5.84880225 -6.47919214 6.11183192 -8 6.375 C -8.74378906 6.50132812 -9.48757813 6.62765625 -10.25390625 6.7578125 C -14.00249437 7.40974087 -17.68984988 8.14293402 -21.375 9.09375 C -24.45977661 9.86494415 -26.85442607 10.19659837 -30 10 C -29.34 12.31 -28.68 14.62 -28 17 C -26.2365625 16.7834375 -26.2365625 16.7834375 -24.4375 16.5625 C -17.64447676 15.80046214 -10.82083163 15.42237034 -4 15 C -4 16.65 -4 18.3 -4 20 C -11.26 21.32 -18.52 22.64 -26 24 C -25.67 26.64 -25.34 29.28 -25 32 C -24.40316406 31.79503906 -23.80632812 31.59007812 -23.19140625 31.37890625 C -14.51241393 28.68364712 -6.0138963 28.30645134 3 28 C 3 29.65 3 31.3 3 33 C 2.43079834 33.08040527 1.86159668 33.16081055 1.27514648 33.24365234 C -1.33814804 33.61572901 -3.95030131 33.99530934 -6.5625 34.375 C -7.45775391 34.50132812 -8.35300781 34.62765625 -9.27539062 34.7578125 C -13.24084243 35.33883108 -16.97913821 35.99401523 -20.83984375 37.1015625 C -23.75640599 37.93074583 -25.99489572 38.18212753 -29 38 C -32.31780699 27.73519909 -35.60471932 17.52662823 -38 7 C -10.61165049 0 -10.61165049 0 0 0 Z" stroke-linecap="round" />
</g>
		<g transform="matrix(1 0 0 1 -110 -109)"  >
<path style="stroke: none; stroke-width: 1; stroke-dasharray: none; stroke-linecap: butt; stroke-dashoffset: 0; stroke-linejoin: miter; stroke-miterlimit: 4; fill: rgb(38,34,35); fill-rule: nonzero; opacity: 1;"  transform=" translate(7, -16.5)" d="M 0 0 C 1.25854492 1.42114258 1.25854492 1.42114258 2.48046875 3.39453125 C 2.92197266 4.10287109 3.36347656 4.81121094 3.81835938 5.54101562 C 4.27017578 6.29060547 4.72199219 7.04019531 5.1875 7.8125 C 5.88262695 8.91948242 5.88262695 8.91948242 6.59179688 10.04882812 C 10 15.5953148 10 15.5953148 10 19 C 7.80487579 20.77926847 5.64926586 22.36642765 3.3125 23.9375 C 2.05768434 24.79945885 0.80376278 25.66272089 -0.44921875 26.52734375 C -1.05169434 26.94097168 -1.65416992 27.35459961 -2.27490234 27.78076172 C -4.59777507 29.42248637 -6.80551913 31.19154636 -9 33 C -13.46527093 31.40526038 -15.85507843 27.93096666 -18.75 24.375 C -19.25660156 23.76398438 -19.76320312 23.15296875 -20.28515625 22.5234375 C -21.5296029 21.02070947 -22.76564128 19.51102533 -24 18 C -22.59528666 14.67193076 -21.03192763 12.95989328 -18.15625 10.80078125 C -17.40472656 10.23166016 -16.65320313 9.66253906 -15.87890625 9.07617188 C -15.09386719 8.49416016 -14.30882812 7.91214844 -13.5 7.3125 C -12.71496094 6.71888672 -11.92992187 6.12527344 -11.12109375 5.51367188 C -3.79048781 0 -3.79048781 0 0 0 Z" stroke-linecap="round" />
</g>
		<g transform="matrix(1 0 0 1 115 -120)"  >
<path style="stroke: none; stroke-width: 1; stroke-dasharray: none; stroke-linecap: butt; stroke-dashoffset: 0; stroke-linejoin: miter; stroke-miterlimit: 4; fill: rgb(210,51,42); fill-rule: nonzero; opacity: 1;"  transform=" translate(-17, -19.5)" d="M 0 0 C 5.20834469 2.09275865 9.88296401 4.56771468 14.625 7.5625 C 15.31142578 7.99288574 15.99785156 8.42327148 16.70507812 8.86669922 C 23.45832966 13.17088377 29.76578211 17.9827356 36 23 C 35.34 24.65 34.68 26.3 34 28 C 29.8177768 26.12750461 26.67888967 23.3198047 23.21875 20.36328125 C 21.15098153 18.78428863 21.15098153 18.78428863 19.03173828 19.1965332 C 16.50086836 20.19738551 15.76505028 21.23648186 14.2734375 23.4921875 C 13.7990625 24.19730469 13.3246875 24.90242188 12.8359375 25.62890625 C 12.11277344 26.74072266 12.11277344 26.74072266 11.375 27.875 C 10.88515625 28.60847656 10.3953125 29.34195313 9.890625 30.09765625 C 8.58337969 32.05852422 7.29021064 34.02790526 6 36 C 5.34 36.99 4.68 37.98 4 39 C 1.13275314 38.42655063 0.1385485 38.1385485 -2 36 C 2.62 28.74 7.24 21.48 12 14 C 8.59302303 11.27441843 5.91609124 9.25342216 2.1875 7.25 C 1.39730469 6.82203125 0.60710937 6.3940625 -0.20703125 5.953125 C -0.79871094 5.63859375 -1.39039063 5.3240625 -2 5 C -1.34 3.35 -0.68 1.7 0 0 Z" stroke-linecap="round" />
</g>
		<g transform="matrix(1 0 0 1 -72.39 -136.39)"  >
<path style="stroke: none; stroke-width: 1; stroke-dasharray: none; stroke-linecap: butt; stroke-dashoffset: 0; stroke-linejoin: miter; stroke-miterlimit: 4; fill: rgb(42,38,39); fill-rule: nonzero; opacity: 1;"  transform=" translate(12.39, -9.11)" d="M 0 0 C 0.66 2.97 1.32 5.94 2 9 C 1.01 9.38671875 0.02 9.7734375 -1 10.171875 C -9.53073737 13.49039062 -9.53073737 13.49039062 -17.8125 17.375 C -21 19 -21 19 -23 19 C -23.69965443 17.73581754 -24.38434763 16.46334598 -25.0625 15.1875 C -25.44535156 14.47980469 -25.82820313 13.77210938 -26.22265625 13.04296875 C -27 11 -27 11 -26 8 C -22.76734026 6.05139326 -19.225176 4.7129891 -15.75 3.25 C -14.79480469 2.82589844 -13.83960938 2.40179688 -12.85546875 1.96484375 C -11.46521484 1.37123047 -11.46521484 1.37123047 -10.046875 0.765625 C -9.19963867 0.40243164 -8.35240234 0.03923828 -7.47949219 -0.33496094 C -4.61484088 -1.10330577 -2.82825064 -0.79019073 0 0 Z" stroke-linecap="round" />
</g>
		<g transform="matrix(1 0 0 1 56 -145)"  >
<path style="stroke: none; stroke-width: 1; stroke-dasharray: none; stroke-linecap: butt; stroke-dashoffset: 0; stroke-linejoin: miter; stroke-miterlimit: 4; fill: rgb(40,36,37); fill-rule: nonzero; opacity: 1;"  transform=" translate(-13, -8.5)" d="M 0 0 C 9.4369726 0.89028043 18.20978782 3.51708574 27 7 C 26.54177532 10.46941546 26.10868317 13.67395049 25 17 C 18.68557993 16.50475137 13.06745624 14.89742287 7.05078125 12.9375 C 3.70925414 11.85468747 3.70925414 11.85468747 -1 11 C -0.67 7.37 -0.34 3.74 0 0 Z" stroke-linecap="round" />
</g>
		<g transform="matrix(1 0 0 1 -32 -15.6)"  >
<path style="stroke: none; stroke-width: 1; stroke-dasharray: none; stroke-linecap: butt; stroke-dashoffset: 0; stroke-linejoin: miter; stroke-miterlimit: 4; fill: rgb(236,236,236); fill-rule: nonzero; opacity: 1;"  transform=" translate(30, 4.1)" d="M 0 0 C 0 0.33 0 0.66 0 1 C -7.47834967 0.51172287 -14.68925318 -0.33405548 -22 -2 C -22 -0.68 -22 0.64 -22 2 C -27.1606009 0.95038626 -32.06664904 -0.33056352 -37.0625 -2 C -44.60158975 -4.39392897 -52.16192774 -5.23531002 -60 -6 C -60 -6.66 -60 -7.32 -60 -8 C -38.93126521 -13.55223129 -19.51616352 -7.74282574 0 0 Z" stroke-linecap="round" />
</g>
		<g transform="matrix(1 0 0 1 11 -152.06)"  >
<path style="stroke: none; stroke-width: 1; stroke-dasharray: none; stroke-linecap: butt; stroke-dashoffset: 0; stroke-linejoin: miter; stroke-miterlimit: 4; fill: rgb(40,37,38); fill-rule: nonzero; opacity: 1;"  transform=" translate(-14, -5.44)" d="M 0 0 C 4.47915328 -0.02886338 8.95828291 -0.04675187 13.4375 -0.0625 C 14.71689453 -0.07087891 15.99628906 -0.07925781 17.31445312 -0.08789062 C 19.13686523 -0.09272461 19.13686523 -0.09272461 20.99609375 -0.09765625 C 22.12200928 -0.10289307 23.2479248 -0.10812988 24.40795898 -0.11352539 C 27 0 27 0 28 1 C 27.67 4.3 27.34 7.6 27 11 C 18.09 10.67 9.18 10.34 0 10 C 0 6.7 0 3.4 0 0 Z" stroke-linecap="round" />
</g>
		<g transform="matrix(1 0 0 1 -13.5 20.5)"  >
<path style="stroke: none; stroke-width: 1; stroke-dasharray: none; stroke-linecap: butt; stroke-dashoffset: 0; stroke-linejoin: miter; stroke-miterlimit: 4; fill: rgb(240,239,239); fill-rule: nonzero; opacity: 1;"  transform=" translate(-27.5, -23)" d="M 0 0 C 17.86308743 2.29630122 33.52765895 15.26783773 44.51660156 28.87841797 C 52.77333937 39.61770003 52.77333937 39.61770003 55 46 C 51.54337554 43.30214676 48.54090248 40.58341411 45.6875 37.25 C 32.99490114 22.44659695 17.36482235 9.92919805 0 1 C 0 0.67 0 0.34 0 0 Z" stroke-linecap="round" />
</g>
		<g transform="matrix(1 0 0 1 129.5 -98.5)"  >
<path style="stroke: none; stroke-width: 1; stroke-dasharray: none; stroke-linecap: butt; stroke-dashoffset: 0; stroke-linejoin: miter; stroke-miterlimit: 4; fill: rgb(212,52,42); fill-rule: nonzero; opacity: 1;"  transform=" translate(7.5, -14)" d="M 0 0 C 2.475 1.485 2.475 1.485 5 3 C 4.41172909 6.46878636 3.21291334 8.19182823 0.796875 10.71484375 C 0.14589844 11.40126953 -0.50507813 12.08769531 -1.17578125 12.79492188 C -1.86027344 13.50197266 -2.54476563 14.20902344 -3.25 14.9375 C -3.91902344 15.64068359 -4.58804687 16.34386719 -5.27734375 17.06835938 C -8.80205542 20.76272809 -12.37199606 24.40715113 -16 28 C -17.32 27.34 -18.64 26.68 -20 26 C -20 22.04217714 -18.75270073 21.33275838 -16.0625 18.5 C -11.78637604 13.89910713 -7.78679107 9.14091872 -3.84765625 4.25 C -2 2 -2 2 0 0 Z" stroke-linecap="round" />
</g>
		<g transform="matrix(1 0 0 1 12 -47.84)"  >
<path style="stroke: none; stroke-width: 1; stroke-dasharray: none; stroke-linecap: butt; stroke-dashoffset: 0; stroke-linejoin: miter; stroke-miterlimit: 4; fill: rgb(243,243,243); fill-rule: nonzero; opacity: 1;"  transform=" translate(12, -4.66)" d="M 0 0 C -0.47761194 5.37313433 -0.47761194 5.37313433 -2.5625 7.875 C -8.34858061 10.54549875 -13.28965648 9.06513067 -19 7 C -20.67163195 6.34588315 -22.34015202 5.68346682 -24 5 C -24 4.67 -24 4.34 -24 4 C -20.37552059 3.33048182 -16.75033483 2.66486934 -13.125 2 C -12.09246094 1.80921875 -11.05992187 1.6184375 -9.99609375 1.421875 C -8.51689453 1.15117187 -8.51689453 1.15117187 -7.0078125 0.875 C -5.64100342 0.62363281 -5.64100342 0.62363281 -4.24658203 0.3671875 C -2 0 -2 0 0 0 Z" stroke-linecap="round" />
</g>
</g>
</g>
</svg>